<?xml version="1.0" encoding="UTF-8"?>
<svg id="Layer_1" xmlns="http://www.w3.org/2000/svg" xmlns:xlink="http://www.w3.org/1999/xlink" version="1.1" viewBox="0 0 4500 1500">
  <!-- Generator: Adobe Illustrator 29.6.1, SVG Export Plug-In . SVG Version: 2.1.1 Build 9)  -->
  <defs>
    <style>
      .st0 {
        fill: url(#radial-gradient);
      }

      .st1 {
        fill: #156172;
      }

      .st2 {
        fill: #ce603e;
      }
    </style>
    <radialGradient id="radial-gradient" cx="1110.74" cy="748.16" fx="1110.74" fy="748.16" r="1068.29" gradientTransform="translate(8.67 -262.17) rotate(.49) scale(1 1.34)" gradientUnits="userSpaceOnUse">
      <stop offset=".03" stop-color="#fff" stop-opacity="0"/>
      <stop offset=".15" stop-color="#fdfdfd" stop-opacity=".03"/>
      <stop offset=".29" stop-color="#f7f7f7" stop-opacity=".11"/>
      <stop offset=".45" stop-color="#eee" stop-opacity=".25"/>
      <stop offset=".62" stop-color="#e1e1e1" stop-opacity=".44"/>
      <stop offset=".8" stop-color="#d1d1d1" stop-opacity=".69"/>
      <stop offset=".99" stop-color="#bdbdbd" stop-opacity=".98"/>
      <stop offset="1" stop-color="#bcbcbc"/>
    </radialGradient>
  </defs>
  <g>
    <rect class="st0" x="147.04" y="256.88" width="1702.8" height="986.24" rx="233.06" ry="233.06"/>
    <g>
      <path class="st1" d="M766.31,645.6l-64.72,77.97c-7.81-10.58-17.46-20.03-29.07-28.66-11.51-8.53-24.14-15.31-37.7-20.34-13.56-5.03-27.53-7.5-41.91-7.5-22.7,0-42.63,5.44-60.1,16.33-17.46,10.68-31.13,25.58-41.09,44.38-9.96,18.8-15,40.27-15,64.62s5.14,44.99,15.41,63.38c10.17,18.59,24.24,33.59,41.91,44.89,17.77,11.3,37.6,16.95,59.69,16.95,14.38,0,27.94-1.95,40.68-6.16,12.74-4.11,24.76-10.48,36.06-18.7,11.3-8.32,21.78-18.29,31.13-29.79l63.9,77.87c-18.8,23.83-44.79,43.04-77.97,57.73-33.18,14.59-68.31,21.98-105.4,21.98-42.02,0-79.61-9.96-112.8-29.89-33.18-19.93-59.27-47.05-78.28-81.36-19.21-34.21-28.66-73.25-28.66-116.9s9.45-81.98,28.66-116.49c19-34.62,45.1-61.84,78.28-81.77,33.18-19.93,70.78-29.79,112.8-29.79,39.24,0,75.3,7.09,107.86,21.47,32.56,14.48,58.04,34.31,76.33,59.79Z"/>
      <path class="st1" d="M967.96,678.78v333.46h-71.6c.72-4.31,1.03-8.94,1.03-13.77,0-12.64-2.47-23.63-6.99-33.18-3.49-7.09-8.01-13.05-13.56-17.98-1.85-1.64-3.8-3.08-5.96-4.52-1.03-.62-2.05-1.34-3.18-1.85-2.16-1.23-4.42-2.16-6.78-3.08-3.49-1.23-7.09-2.05-10.89-2.67v-256.41h117.93Z"/>
      <rect class="st1" x="767.95" y="573.39" width="82.08" height="105.4"/>
      <path class="st1" d="M1397.47,572.56l-31.54,129.33c-6.47-3.18-14.59-6.16-23.94-8.63-9.45-2.47-19.11-3.7-29.07-3.7-13.35,0-25.58,2.36-36.88,6.99-11.4,4.73-21.16,11.3-29.48,20.03-8.32,8.53-14.79,18.49-19.52,30.2-4.62,11.61-6.99,24.35-6.99,38.11v227.34h-118.55v-438.85h113.51l2.05,70.99c4.42-7.29,9.14-14.18,14.48-20.85,15-18.39,32.56-32.87,52.7-43.45,20.24-10.48,41.4-15.72,63.49-15.72,9.45,0,18.59.82,27.43,2.47,8.83,1.54,16.23,3.6,22.29,5.75Z"/>
      <path class="st1" d="M1471.64,953.58c2.16,3.08,3.8,6.37,5.03,9.76-1.23-3.39-2.98-6.68-5.14-9.76-1.13-1.54-2.26-2.98-3.49-4.31,1.23,1.23,2.47,2.77,3.6,4.31Z"/>
      <g>
        <path class="st1" d="M890.4,965.29c4.52,9.55,6.99,20.55,6.99,33.18,0,4.83-.31,9.45-1.03,13.77h-46.33v-76.84c3.8.41,7.4,1.34,10.89,2.47,2.36.92,4.62,1.85,6.78,3.08,1.13.62,2.16,1.23,3.18,1.95,2.16,1.34,4.11,2.88,5.96,4.42,5.55,4.93,10.07,10.89,13.56,17.98Z"/>
        <path class="st1" d="M766.31,645.6l-64.72,77.97c-7.81-10.58-17.46-20.03-29.07-28.66-11.51-8.53-24.14-15.31-37.7-20.34-13.56-5.03-27.53-7.5-41.91-7.5-22.7,0-42.63,5.44-60.1,16.33-17.46,10.68-31.13,25.58-41.09,44.38-9.96,18.8-15,40.27-15,64.62s5.14,44.99,15.41,63.38c10.17,18.59,24.24,33.59,41.91,44.89,17.77,11.3,37.6,16.95,59.69,16.95,14.38,0,27.94-1.95,40.68-6.16,12.74-4.11,24.76-10.48,36.06-18.7,11.3-8.32,21.78-18.29,31.13-29.79l63.9,77.87c-18.8,23.83-44.79,43.04-77.97,57.73-33.18,14.59-68.31,21.98-105.4,21.98-42.02,0-79.61-9.96-112.8-29.89-33.18-19.93-59.27-47.05-78.28-81.36-19.21-34.21-28.66-73.25-28.66-116.9s9.45-81.98,28.66-116.49c19-34.62,45.1-61.84,78.28-81.77,33.18-19.93,70.78-29.79,112.8-29.79,39.24,0,75.3,7.09,107.86,21.47,32.56,14.48,58.04,34.31,76.33,59.79Z"/>
        <rect class="st1" x="850.03" y="573.39" width="117.93" height="105.4"/>
        <path class="st1" d="M1550.23,398.44v613.8h-117.93v-36.47h46.64v-1.64c-.21-3.8-1.03-7.29-2.26-10.79-1.23-3.39-2.88-6.68-5.03-9.76-1.13-1.54-2.36-3.08-3.6-4.31-3.7-4.21-8.01-7.4-13.05-9.96-3.39-1.64-6.88-2.98-10.68-3.8-3.8-.82-7.7-1.23-11.92-1.23h-.1V398.44h117.93Z"/>
        <path class="st1" d="M967.96,678.78v333.46h-71.6c.72-4.31,1.03-8.94,1.03-13.77,0-12.64-2.47-23.63-6.99-33.18-3.49-7.09-8.01-13.05-13.56-17.98-1.85-1.64-3.8-3.08-5.96-4.52-1.03-.62-2.05-1.34-3.18-1.85-2.16-1.23-4.42-2.16-6.78-3.08-3.49-1.23-7.09-2.05-10.89-2.67v-256.41h117.93Z"/>
        <rect class="st1" x="767.95" y="573.39" width="82.08" height="105.4"/>
        <path class="st1" d="M1478.93,975.77h-46.64v-41.5h.1c4.21,0,8.12.41,11.92,1.23,3.8.92,7.29,2.16,10.58,3.9,5.14,2.47,9.45,5.75,13.15,9.86,1.23,1.34,2.36,2.77,3.49,4.31,2.16,3.08,3.9,6.37,5.14,9.76,1.23,3.49,2.05,6.99,2.26,10.79v1.64Z"/>
        <path class="st1" d="M1397.47,572.56l-31.54,129.33c-6.47-3.18-14.59-6.16-23.94-8.63-9.45-2.47-19.11-3.7-29.07-3.7-13.35,0-25.58,2.36-36.88,6.99-11.4,4.73-21.16,11.3-29.48,20.03-8.32,8.53-14.79,18.49-19.52,30.2-4.62,11.61-6.99,24.35-6.99,38.11v227.34h-118.55v-438.85h113.51l2.05,70.99c4.42-7.29,9.14-14.18,14.48-20.85,15-18.39,32.56-32.87,52.7-43.45,20.24-10.48,41.4-15.72,63.49-15.72,9.45,0,18.59.82,27.43,2.47,8.83,1.54,16.23,3.6,22.29,5.75Z"/>
        <rect class="st1" x="850.03" y="462.23" width="117.93" height="111.15"/>
        <rect class="st1" x="967.96" y="573.39" width="89.48" height="105.4"/>
      </g>
    </g>
  </g>
  <path class="st2" d="M1652.59,816.8v-92.31h395.28v92.31h-395.28ZM1798.56,961.97v-384.23h102.56v384.23h-102.56Z"/>
  <g>
    <g id="j8AAOO">
      <path class="st1" d="M4350.53,817.94c-.07-4.65-3.91-8.42-8.49-8.42l-140.86.07-.44.3c-4.21,2.58-5.46,6.5-3.17,10.26,2.22,3.03,8.93,9.38,16.69,16.69,9.08,8.56,22.74,21.56,23.26,24.36.37,4.21-13.44,18.75-20.82,24.73-12.92,10.7-27.46,18.6-43.34,23.48-12.25,3.84-24.99,6.62-37.87,5.68-79.69-5.77-114.75-72.57-115.72-134.59h324.21c3.84,0,6.94-3.03,7.01-6.87.88-38.17-1.99-66.23-13.58-100.19-8.49-25.03-21.7-48.51-41.71-69.77-18.53-19.64-40.61-34.85-66-45.7-25.47-10.78-53.23-16.17-83.06-16.17-32.12,0-61.87,5.61-89.18,16.98-116.03,48.3-161.46,193.63-125.76,307.88,41.93,134.2,220.75,178.19,329.75,100.46,9.01-6.42,17.05-13.95,24.88-21.26,5.68-5.32,11.59-10.78,17.79-15.8.89-.07,1.62.3,2.81,1.11l.66.37c3.99,2.44,9.97,9.38,15.73,16.09l2.66,3.03c6.57,7.68,11.37,12.7,14.99,14.4,4.73,2.22,8.93,1.11,11.74-3.17l.3-.52-2.44-143.45ZM4047.83,685.47c8.86-18.31,21.7-32.12,38.54-41.49,16.91-9.45,37.58-14.17,61.87-14.17,16.61,0,31.6,3.32,44.81,9.97,13.36,6.65,24.21,16.02,32.85,28.2,8.57,12.25,13.51,25.84,14.55,40.68v3.4h-201.77c2.14-9.6,5.17-18.46,9.15-26.58Z"/>
    </g>
    <path class="st1" d="M3609.36,610.16l-62.97,69.65c-10.07-9.35-21.16-17.87-33.59-25.68-12.53-7.7-25.37-13.77-38.63-18.18-13.25-4.52-25.17-6.68-35.65-6.68-9.45,0-17.87.82-25.27,2.57-7.5,1.64-13.66,4.11-18.7,7.29-4.93,3.39-8.73,7.7-11.3,13.05-2.36,5.24-3.7,10.79-3.7,16.95s1.54,11.92,4.52,17.36c3.08,5.65,7.4,10.27,13.05,14.18,6.06,3.18,14.9,7.09,26.81,11.51,11.92,4.42,28.04,9.45,48.59,15,26.5,7.19,49.1,15.2,67.6,24.04,18.59,8.94,33.28,19,44.38,30.72,9.45,9.96,16.33,21.26,20.75,34,4.31,12.74,6.57,26.81,6.57,42.32,0,27.12-7.6,51.26-22.81,72.53-15.2,21.26-36.06,37.91-62.56,49.82-26.61,11.92-56.5,17.87-89.68,17.87-40.89,0-77.15-6.78-108.99-20.34-31.85-13.56-57.32-32.26-76.74-55.99l73.04-63.08c17.05,18.18,36.16,31.43,57.22,39.34,20.96,8.12,41.91,12.02,62.97,12.02,8.32,0,15.92-.92,22.81-2.88,6.99-1.85,12.94-4.73,17.87-8.32,5.03-3.49,8.73-7.91,11.2-13.15,2.47-5.34,3.7-10.99,3.7-17.05,0-12.22-4.93-21.88-14.9-29.07-5.55-2.77-14.18-6.27-25.68-10.38-11.61-4.21-26.5-8.73-44.79-13.66-28.25-7.19-52.19-15.61-71.81-25.37-19.62-9.66-35.24-20.55-46.84-32.67-9.96-11.71-17.57-24.14-22.81-37.7-5.24-13.56-7.81-28.66-7.81-45.3,0-19.93,4.31-38.01,13.15-54.24,8.94-16.44,21.16-30.3,36.98-42.02,15.72-11.51,33.8-20.55,54.24-26.91,20.44-6.37,42.12-9.55,64.72-9.55s44.79,2.88,66.36,8.32c21.68,5.55,41.6,13.46,60.2,23.63,18.49,10.27,34.72,22.29,48.49,36.06Z"/>
    <rect class="st1" x="3704.79" y="551.3" width="117.83" height="105.4"/>
    <rect class="st1" x="3622.71" y="551.3" width="82.08" height="105.4"/>
    <path class="st1" d="M3204.51,551.3v438.85h-118.55v-57.63c-8.73,11.4-19.52,21.47-31.85,30.61-14.79,10.79-31.23,19.42-49.51,25.68-18.18,6.47-37.6,9.66-58.04,9.66-36.47,0-69.34-9.96-98.72-30-29.28-19.83-52.39-46.95-69.65-81.26-17.16-34.21-25.68-73.45-25.68-117.73s8.63-83.31,26.2-117.32c17.36-34.11,40.99-60.92,70.88-80.54,29.79-19.62,63.79-29.48,102.01-29.48,21.57,0,41.4,3.18,59.38,9.55,17.87,6.37,33.59,15,47.15,26.09,11.4,9.25,21.16,19.62,29.48,31.23v-57.73h116.9ZM3089.35,769.49c0-24.96-4.73-46.74-13.77-65.64-9.14-18.8-21.98-33.49-38.63-44.38-16.54-10.68-35.95-16.13-58.04-16.13s-40.47,5.44-56.81,16.13c-16.33,10.89-29.17,25.58-38.52,44.38-9.45,18.9-14.07,40.68-14.07,65.64s4.62,47.67,14.07,66.77c9.35,19,22.19,33.9,38.52,44.38,16.33,10.58,35.34,15.72,56.81,15.72s41.5-5.14,58.04-15.72c16.64-10.48,29.48-25.37,38.63-44.38,9.04-19.11,13.77-41.4,13.77-66.77Z"/>
    <rect class="st1" x="3704.79" y="656.7" width="117.83" height="333.46"/>
    <rect class="st1" x="3704.79" y="440.04" width="117.83" height="111.25"/>
    <rect class="st1" x="3822.62" y="551.3" width="89.58" height="105.4"/>
    <polygon class="st1" points="2756.6 551.31 2607.23 990.16 2521.87 990.16 2425.3 757.28 2330.28 990.16 2245.63 990.16 2160.37 735.29 2146.19 692.87 2144.24 687.02 2098.84 551.31 2221.59 551.31 2303.26 823.34 2391.61 614.28 2461.36 614.28 2552.58 822.1 2633.94 551.31 2756.6 551.31"/>
  </g>
</svg>