<?xml version="1.0" encoding="UTF-8"?>
<svg id="Layer_1" xmlns="http://www.w3.org/2000/svg" xmlns:xlink="http://www.w3.org/1999/xlink" version="1.1" viewBox="0 0 4000 2500">
  <!-- Generator: Adobe Illustrator 29.6.1, SVG Export Plug-In . SVG Version: 2.1.1 Build 9)  -->
  <defs>
    <style>
      .st0 {
        fill: url(#radial-gradient);
      }

      .st1 {
        fill: #156172;
      }

      .st2 {
        fill: #ce603e;
      }
    </style>
    <radialGradient id="radial-gradient" cx="1322.85" cy="1404.07" fx="1322.85" fy="1421.94" r="1721.6" gradientTransform="translate(2825.51 -899.53) rotate(39.94) scale(1.03 1.15) skewX(-17.15)" gradientUnits="userSpaceOnUse">
      <stop offset=".26" stop-color="#fff" stop-opacity="0"/>
      <stop offset=".32" stop-color="#f8f8f8" stop-opacity=".1"/>
      <stop offset=".64" stop-color="#d8d8d8" stop-opacity=".58"/>
      <stop offset=".86" stop-color="#c3c3c3" stop-opacity=".88"/>
      <stop offset=".97" stop-color="#bcbcbc"/>
    </radialGradient>
  </defs>
  <rect class="st0" x="526.34" y="273.68" width="2947.33" height="1278.07" rx="358.28" ry="358.28"/>
  <g>
    <g id="j8AAOO">
      <path class="st1" d="M3635.69,1953.58c-.11-6.77-5.69-12.24-12.35-12.24l-204.88.11-.64.43c-6.12,3.76-7.95,9.45-4.62,14.92,3.22,4.4,12.99,13.64,24.27,24.27,13.21,12.45,33.07,31.36,33.82,35.43.54,6.12-19.54,27.27-30.28,35.97-18.79,15.57-39.94,27.06-63.03,34.14-17.82,5.58-36.34,9.63-55.09,8.27-115.9-8.4-166.89-105.55-168.3-195.75h471.54c5.58,0,10.09-4.4,10.2-9.99,1.29-55.52-2.9-96.32-19.76-145.71-12.35-36.4-31.57-70.55-60.67-101.47-26.95-28.56-59.06-50.68-95.99-66.47-37.05-15.68-77.42-23.51-120.8-23.51-46.71,0-89.98,8.16-129.71,24.7-168.76,70.24-234.83,281.62-182.91,447.78,60.98,195.18,321.07,259.16,479.59,146.12,13.1-9.34,24.8-20.3,36.19-30.93,8.27-7.73,16.86-15.68,25.88-22.98,1.29-.11,2.36.43,4.08,1.61l.96.54c5.8,3.54,14.5,13.64,22.87,23.41l3.87,4.4c9.56,11.16,16.53,18.47,21.8,20.94,6.87,3.22,12.99,1.61,17.07-4.62l.43-.75-3.54-208.63ZM3195.44,1760.91c12.88-26.63,31.57-46.71,56.05-60.35,24.59-13.74,54.66-20.62,89.98-20.62,24.16,0,45.96,4.83,65.18,14.49,19.43,9.67,35.22,23.3,47.78,41.02,12.46,17.82,19.65,37.58,21.16,59.16v4.94h-293.46c3.11-13.96,7.52-26.84,13.31-38.65Z"/>
    </g>
    <path class="st1" d="M2557.71,1651.37l-91.59,101.3c-14.64-13.6-30.78-26-48.86-37.35-18.23-11.21-36.9-20.02-56.18-26.45-19.27-6.57-36.61-9.71-51.85-9.71-13.75,0-26,1.2-36.75,3.74-10.91,2.39-19.87,5.98-27.19,10.61-7.17,4.93-12.7,11.21-16.44,18.98-3.44,7.62-5.38,15.69-5.38,24.65s2.24,17.33,6.57,25.25c4.48,8.22,10.76,14.94,18.98,20.62,8.82,4.63,21.66,10.31,39,16.73,17.33,6.42,40.79,13.75,70.67,21.81,38.55,10.46,71.42,22.11,98.31,34.96,27.04,13,48.41,27.64,64.55,44.67,13.75,14.49,23.76,30.93,30.18,49.45,6.28,18.53,9.56,39,9.56,61.56,0,39.44-11.06,74.56-33.17,105.48-22.11,30.93-52.44,55.13-90.99,72.46-38.7,17.33-82.18,26-130.43,26-59.47,0-112.21-9.86-158.52-29.58-46.32-19.72-83.37-46.91-111.61-81.43l106.23-91.74c24.8,26.45,52.59,45.72,83.22,57.22,30.48,11.8,60.96,17.48,91.59,17.48,12.1,0,23.16-1.34,33.17-4.18,10.16-2.69,18.83-6.87,26-12.1,7.32-5.08,12.7-11.5,16.29-19.12,3.59-7.77,5.38-15.99,5.38-24.8,0-17.78-7.17-31.82-21.66-42.28-8.07-4.03-20.62-9.11-37.35-15.09-16.88-6.13-38.55-12.7-65.14-19.87-41.09-10.46-75.9-22.71-104.44-36.9-28.54-14.04-51.25-29.88-68.13-47.51-14.49-17.03-25.55-35.11-33.17-54.83-7.62-19.72-11.36-41.69-11.36-65.89,0-28.99,6.28-55.28,19.12-78.89,13-23.91,30.78-44.08,53.79-61.11,22.86-16.73,49.16-29.88,78.89-39.15,29.73-9.26,61.26-13.9,94.13-13.9s65.14,4.18,96.52,12.1c31.53,8.07,60.51,19.57,87.55,34.36,26.89,14.94,50.5,32.42,70.52,52.44Z"/>
    <rect class="st1" x="2696.52" y="1565.76" width="171.37" height="153.29"/>
    <rect class="st1" x="2577.14" y="1565.76" width="119.38" height="153.29"/>
    <path class="st1" d="M1968.89,1565.76v638.28h-172.42v-83.82c-12.7,16.58-28.39,31.23-46.32,44.52-21.52,15.69-45.42,28.24-72.02,37.35-26.45,9.41-54.68,14.04-84.42,14.04-53.04,0-100.85-14.49-143.58-43.63-42.58-28.84-76.2-68.28-101.3-118.18-24.95-49.75-37.35-106.83-37.35-171.22s12.55-121.17,38.1-170.63c25.25-49.6,59.61-88.6,103.09-117.14,43.33-28.54,92.78-42.88,148.36-42.88,31.38,0,60.21,4.63,86.36,13.9,26,9.26,48.86,21.81,68.58,37.95,16.58,13.45,30.78,28.54,42.88,45.42v-83.97h170.03ZM1801.4,1883.11c0-36.31-6.87-67.98-20.02-95.47-13.3-27.34-31.97-48.71-56.18-64.55-24.05-15.54-52.29-23.46-84.42-23.46s-58.87,7.92-82.62,23.46c-23.76,15.84-42.43,37.2-56.03,64.55-13.75,27.49-20.47,59.17-20.47,95.47s6.72,69.33,20.47,97.12c13.6,27.64,32.27,49.31,56.03,64.55,23.76,15.39,51.4,22.86,82.62,22.86s60.36-7.47,84.42-22.86c24.2-15.24,42.88-36.9,56.18-64.55,13.15-27.79,20.02-60.21,20.02-97.12Z"/>
    <rect class="st1" x="2696.52" y="1719.06" width="171.37" height="484.98"/>
    <rect class="st1" x="2696.52" y="1403.95" width="171.37" height="161.81"/>
    <rect class="st1" x="2867.89" y="1565.76" width="130.29" height="153.29"/>
    <polygon class="st1" points="1317.42 1565.69 1100.26 2204.04 976.1 2204.04 835.61 1865.27 697.4 2204.04 574.31 2204.04 450.28 1833.29 430.07 1772.81 426.86 1763.18 360.77 1565.69 539.38 1565.69 658.06 1961.33 786.64 1657.35 888.06 1657.35 1020.79 1959.59 1139.07 1565.69 1317.42 1565.69"/>
  </g>
  <g>
    <path class="st2" d="M2648.21,983.01v-134.26h574.91v134.26h-574.91ZM2860.51,1194.15v-558.84h149.17v558.84h-149.17Z"/>
    <g>
      <path class="st1" d="M1364.36,772.15l-94.13,113.4c-11.36-15.39-25.4-29.13-42.28-41.69-16.73-12.4-35.11-22.26-54.83-29.58-19.72-7.32-40.04-10.91-60.96-10.91-33.02,0-62.01,7.92-87.4,23.76-25.4,15.54-45.27,37.2-59.76,64.55-14.49,27.34-21.81,58.57-21.81,93.98s7.47,65.44,22.41,92.19c14.79,27.04,35.26,48.86,60.96,65.29,25.85,16.44,54.68,24.65,86.81,24.65,20.92,0,40.64-2.84,59.17-8.96,18.53-5.98,36.01-15.24,52.44-27.19,16.44-12.1,31.67-26.59,45.27-43.33l92.93,113.25c-27.34,34.66-65.14,62.6-113.4,83.97-48.26,21.22-99.36,31.97-153.29,31.97-61.11,0-115.79-14.49-164.05-43.48-48.26-28.99-86.21-68.43-113.85-118.33-27.94-49.75-41.69-106.53-41.69-170.03s13.75-119.23,41.69-169.43c27.64-50.35,65.59-89.94,113.85-118.93,48.26-28.99,102.94-43.33,164.05-43.33,57.07,0,109.52,10.31,156.88,31.23,47.36,21.07,84.42,49.9,111.01,86.96Z"/>
      <path class="st1" d="M1657.65,820.41v484.98h-104.14c1.05-6.28,1.49-13,1.49-20.02,0-18.38-3.59-34.36-10.16-48.26-5.08-10.31-11.65-18.98-19.72-26.15-2.69-2.39-5.53-4.48-8.67-6.57-1.49-.9-2.99-1.94-4.63-2.69-3.14-1.79-6.42-3.14-9.86-4.48-5.08-1.79-10.31-2.99-15.84-3.88v-372.93h171.52Z"/>
      <rect class="st1" x="1366.75" y="667.12" width="119.38" height="153.29"/>
      <path class="st1" d="M2282.34,665.92l-45.87,188.11c-9.41-4.63-21.22-8.96-34.81-12.55-13.75-3.59-27.79-5.38-42.28-5.38-19.42,0-37.2,3.44-53.64,10.16-16.58,6.87-30.78,16.44-42.88,29.13-12.1,12.4-21.52,26.89-28.39,43.93-6.72,16.88-10.16,35.41-10.16,55.43v330.64h-172.42v-638.28h165.1l2.99,103.24c6.42-10.61,13.3-20.62,21.07-30.33,21.81-26.74,47.36-47.81,76.65-63.2,29.43-15.24,60.21-22.86,92.34-22.86,13.75,0,27.04,1.2,39.89,3.59,12.85,2.24,23.61,5.23,32.42,8.37Z"/>
      <path class="st1" d="M2390.21,1220.08c3.14,4.48,5.53,9.26,7.32,14.19-1.79-4.93-4.33-9.71-7.47-14.19-1.64-2.24-3.29-4.33-5.08-6.28,1.79,1.79,3.59,4.03,5.23,6.28Z"/>
      <g>
        <path class="st1" d="M1544.85,1237.12c6.57,13.9,10.16,29.88,10.16,48.26,0,7.02-.45,13.75-1.49,20.02h-67.38v-111.76c5.53.6,10.76,1.94,15.84,3.59,3.44,1.34,6.72,2.69,9.86,4.48,1.64.9,3.14,1.79,4.63,2.84,3.14,1.94,5.98,4.18,8.67,6.42,8.07,7.17,14.64,15.84,19.72,26.15Z"/>
        <path class="st1" d="M1364.36,772.15l-94.13,113.4c-11.36-15.39-25.4-29.13-42.28-41.69-16.73-12.4-35.11-22.26-54.83-29.58-19.72-7.32-40.04-10.91-60.96-10.91-33.02,0-62.01,7.92-87.4,23.76-25.4,15.54-45.27,37.2-59.76,64.55-14.49,27.34-21.81,58.57-21.81,93.98s7.47,65.44,22.41,92.19c14.79,27.04,35.26,48.86,60.96,65.29,25.85,16.44,54.68,24.65,86.81,24.65,20.92,0,40.64-2.84,59.17-8.96,18.53-5.98,36.01-15.24,52.44-27.19,16.44-12.1,31.67-26.59,45.27-43.33l92.93,113.25c-27.34,34.66-65.14,62.6-113.4,83.97-48.26,21.22-99.36,31.97-153.29,31.97-61.11,0-115.79-14.49-164.05-43.48-48.26-28.99-86.21-68.43-113.85-118.33-27.94-49.75-41.69-106.53-41.69-170.03s13.75-119.23,41.69-169.43c27.64-50.35,65.59-89.94,113.85-118.93,48.26-28.99,102.94-43.33,164.05-43.33,57.07,0,109.52,10.31,156.88,31.23,47.36,21.07,84.42,49.9,111.01,86.96Z"/>
        <rect class="st1" x="1486.13" y="667.12" width="171.52" height="153.29"/>
        <path class="st1" d="M2504.51,412.67v892.72h-171.52v-53.04h67.83v-2.39c-.3-5.53-1.49-10.61-3.29-15.69-1.79-4.93-4.18-9.71-7.32-14.19-1.64-2.24-3.44-4.48-5.23-6.28-5.38-6.13-11.65-10.76-18.98-14.49-4.93-2.39-10.01-4.33-15.54-5.53-5.53-1.2-11.21-1.79-17.33-1.79h-.15V412.67h171.52Z"/>
        <path class="st1" d="M1657.65,820.41v484.98h-104.14c1.05-6.28,1.49-13,1.49-20.02,0-18.38-3.59-34.36-10.16-48.26-5.08-10.31-11.65-18.98-19.72-26.15-2.69-2.39-5.53-4.48-8.67-6.57-1.49-.9-2.99-1.94-4.63-2.69-3.14-1.79-6.42-3.14-9.86-4.48-5.08-1.79-10.31-2.99-15.84-3.88v-372.93h171.52Z"/>
        <rect class="st1" x="1366.75" y="667.12" width="119.38" height="153.29"/>
        <path class="st1" d="M2400.82,1252.36h-67.83v-60.36h.15c6.13,0,11.8.6,17.33,1.79,5.53,1.34,10.61,3.14,15.39,5.68,7.47,3.59,13.75,8.37,19.12,14.34,1.79,1.94,3.44,4.03,5.08,6.28,3.14,4.48,5.68,9.26,7.47,14.19,1.79,5.08,2.99,10.16,3.29,15.69v2.39Z"/>
        <path class="st1" d="M2282.34,665.92l-45.87,188.11c-9.41-4.63-21.22-8.96-34.81-12.55-13.75-3.59-27.79-5.38-42.28-5.38-19.42,0-37.2,3.44-53.64,10.16-16.58,6.87-30.78,16.44-42.88,29.13-12.1,12.4-21.52,26.89-28.39,43.93-6.72,16.88-10.16,35.41-10.16,55.43v330.64h-172.42v-638.28h165.1l2.99,103.24c6.42-10.61,13.3-20.62,21.07-30.33,21.81-26.74,47.36-47.81,76.65-63.2,29.43-15.24,60.21-22.86,92.34-22.86,13.75,0,27.04,1.2,39.89,3.59,12.85,2.24,23.61,5.23,32.42,8.37Z"/>
        <rect class="st1" x="1486.13" y="505.46" width="171.52" height="161.66"/>
        <rect class="st1" x="1657.65" y="667.12" width="130.14" height="153.29"/>
      </g>
    </g>
  </g>
</svg>